<svg xmlns="http://www.w3.org/2000/svg" version="1.1" xmlns:xlink="http://www.w3.org/1999/xlink" xmlns:svgjs="http://svgjs.dev/svgjs" width="1000" height="623" viewBox="0 0 1000 623"><g transform="matrix(1,0,0,1,-0.6060606060605664,0.2522267206477409)"><svg viewBox="0 0 396 247" data-background-color="#ffffff" preserveAspectRatio="xMidYMid meet" height="623" width="1000" xmlns="http://www.w3.org/2000/svg" xmlns:xlink="http://www.w3.org/1999/xlink"><g id="tight-bounds" transform="matrix(1,0,0,1,0.2400000000000091,-0.09999999999999432)"><svg viewBox="0 0 395.52 247.2" height="247.2" width="395.52"><g><svg></svg></g><g><svg viewBox="0 0 395.52 247.2" height="247.2" width="395.52"><g transform="matrix(1,0,0,1,90.16040806607738,47.215199999999996)"><svg viewBox="0 0 215.19918386784522 152.7696" height="152.7696" width="215.19918386784522"><g><svg viewBox="0 0 215.19918386784522 152.7696" height="152.7696" width="215.19918386784522"><g><svg viewBox="0 0 244.43136 173.52148099961056" height="152.7696" width="215.19918386784522"><g><svg viewBox="0 0 244.43136 173.52148099961056" height="173.52148099961056" width="244.43136"><g id="textblocktransform"><svg viewBox="0 0 244.43136 173.52148099961056" height="173.52148099961056" width="244.43136" id="textblock"><g><svg viewBox="0 0 244.43136 109.30094844179104" height="109.30094844179104" width="244.43136"><g transform="matrix(1,0,0,1,0,0)"><svg width="244.43136" viewBox="-0.6500000357627869 -37.45000076293945 83.75 37.45000076293945" height="109.30094844179104" data-palette-color="#000000"><path d="M2.45-2.95L14.5-37.45 20-37.45 32.15-2.95 35.25-2.45 35.25 0 22.05 0 22.05-2.45 26.2-2.95 23.85-10.35 9.25-10.35 6.9-2.95 11.2-2.45 11.2 0-0.65 0-0.65-2.45 2.45-2.95ZM22.9-13.3L17.65-29.45 16.4-33.85 15.2-29.35 10.15-13.3 22.9-13.3ZM36.8 0L36.8-2.45 39.85-2.9 39.85-23.9 36.25-24.8 36.25-27.5 43.4-28.4 44.3-27.75 44.6-25.75 44.55-24.15Q46.3-25.75 49.32-27.08 52.35-28.4 54.75-28.4L54.75-28.4Q57.45-28.4 59.1-27.5 60.75-26.6 61.6-24.7L61.6-24.7Q63.2-26.05 66.07-27.23 68.95-28.4 71.45-28.4L71.45-28.4Q74.55-28.4 76.3-27.23 78.05-26.05 78.77-23.58 79.5-21.1 79.5-16.95L79.5-16.95 79.5-2.9 83.1-2.45 83.1 0 71.2 0 71.2-2.45 74.3-2.9 74.3-16.8Q74.3-19.7 73.87-21.43 73.45-23.15 72.27-24 71.1-24.85 68.9-24.85L68.9-24.85Q67.25-24.85 65.4-24.13 63.55-23.4 62.25-22.4L62.25-22.4Q62.7-20.45 62.7-16.85L62.7-16.85 62.7-2.9 66.25-2.45 66.25 0 54.15 0 54.15-2.45 57.45-2.9 57.45-16.9Q57.45-19.9 57.07-21.55 56.7-23.2 55.65-24.03 54.6-24.85 52.45-24.85L52.45-24.85Q50.65-24.85 48.62-23.95 46.6-23.05 45.1-21.85L45.1-21.85 45.1-2.9 48.45-2.45 48.45 0 36.8 0Z" opacity="1" transform="matrix(1,0,0,1,0,0)" fill="#000000" class="wordmark-text-0" data-fill-palette-color="primary" id="text-0"></path></svg></g></svg></g><g transform="matrix(1,0,0,1,0,135.1042791461353)"><svg viewBox="0 0 244.43136 38.41720185347526" height="38.41720185347526" width="244.43136"><g transform="matrix(1,0,0,1,0,0)"><svg width="244.43136" viewBox="2.200000047683716 -37.349998474121094 239.5500030517578 37.64999771118164" height="38.41720185347526" data-palette-color="#121213"><path d="M9.35 0L2.2 0 6.5-37 13.6-37 22.1-8.65 30.55-37 37.6-37 41.95 0 34.8 0 31.6-27.25 32.75-27.15 25.5 0 18.55 0 11.2-27.15 12.45-27.2 9.35 0ZM60.65 0.3L60.65 0.3Q56.85 0.3 54-0.43 51.15-1.15 49.23-3.13 47.3-5.1 46.35-8.8 45.4-12.5 45.4-18.45L45.4-18.45Q45.4-24.4 46.38-28.13 47.35-31.85 49.25-33.85 51.15-35.85 54-36.6 56.85-37.35 60.65-37.35L60.65-37.35Q64.45-37.35 67.3-36.6 70.15-35.85 72.05-33.85 73.95-31.85 74.9-28.13 75.85-24.4 75.85-18.45L75.85-18.45Q75.85-12.5 74.9-8.8 73.95-5.1 72.05-3.13 70.15-1.15 67.3-0.43 64.45 0.3 60.65 0.3ZM60.65-6.35L60.65-6.35Q62.9-6.35 64.4-6.85 65.9-7.35 66.78-8.63 67.65-9.9 68.05-12.28 68.45-14.65 68.45-18.45L68.45-18.45Q68.45-22.45 68.05-24.85 67.65-27.25 66.78-28.53 65.9-29.8 64.4-30.25 62.9-30.7 60.65-30.7L60.65-30.7Q58.5-30.7 57-30.25 55.5-29.8 54.58-28.53 53.65-27.25 53.23-24.85 52.8-22.45 52.8-18.45L52.8-18.45Q52.8-14.65 53.18-12.28 53.55-9.9 54.45-8.63 55.35-7.35 56.88-6.85 58.4-6.35 60.65-6.35ZM96.5 0L81.3 0 81.3-37 95.85-37Q101.35-37 103.88-34.48 106.4-31.95 106.4-27.3L106.4-27.3Q106.4-25.1 105.78-23.43 105.15-21.75 104-20.68 102.85-19.6 101.25-19.2L101.25-19.2Q102.45-18.9 103.58-18.25 104.7-17.6 105.63-16.5 106.55-15.4 107.08-13.83 107.6-12.25 107.6-10.2L107.6-10.2Q107.6-6.45 106.33-4.2 105.05-1.95 102.58-0.98 100.1 0 96.5 0L96.5 0ZM88.7-16.05L88.7-6.65 96.3-6.65Q97.6-6.65 98.55-7.15 99.5-7.65 100.03-8.7 100.55-9.75 100.55-11.5L100.55-11.5Q100.55-12.95 100-13.95 99.45-14.95 98.5-15.5 97.55-16.05 96.3-16.05L96.3-16.05 88.7-16.05ZM88.7-30.35L88.7-21.75 95.9-21.75Q97.5-21.75 98.43-22.93 99.35-24.1 99.35-26L99.35-26Q99.4-28.45 98.35-29.4 97.3-30.35 95.8-30.35L95.8-30.35 88.7-30.35ZM117.9 0L110.3 0 121.9-37 131.25-37 142.85 0 135.15 0 132.8-7.75 120.2-7.75 117.9 0ZM126.5-30.65L121.95-14.4 131.05-14.4 126.5-30.65ZM154.3 0L146.9 0 146.9-37 162.2-37Q164.4-37 166.3-36.48 168.2-35.95 169.65-34.65 171.1-33.35 171.93-31.05 172.75-28.75 172.75-25.15L172.75-25.15Q172.75-22.6 172.25-20.8 171.75-19 170.93-17.85 170.1-16.7 169.05-16 168-15.3 166.9-14.85L166.9-14.85 173.8 0 166.25 0 160.3-13.7Q159.7-13.7 158.93-13.73 158.15-13.75 157.35-13.75 156.55-13.75 155.75-13.75 154.95-13.75 154.3-13.8L154.3-13.8 154.3 0ZM154.3-30.35L154.3-19.65 160.9-19.65Q161.9-19.65 162.7-19.9 163.5-20.15 164.1-20.78 164.7-21.4 165.03-22.45 165.35-23.5 165.35-25.15L165.35-25.15Q165.35-26.7 165.03-27.73 164.7-28.75 164.1-29.33 163.5-29.9 162.7-30.13 161.9-30.35 160.9-30.35L160.9-30.35 154.3-30.35ZM193.9 0L178.25 0 178.25-37 193.9-37Q197.65-37 200.15-35.68 202.65-34.35 204.13-31.88 205.6-29.4 206.2-26 206.8-22.6 206.8-18.5L206.8-18.5Q206.8-12.25 205.38-8.15 203.95-4.05 201.1-2.02 198.25 0 193.9 0L193.9 0ZM185.65-30.35L185.65-6.65 193.15-6.65Q195.45-6.65 196.8-7.98 198.15-9.3 198.78-11.95 199.4-14.6 199.4-18.5L199.4-18.5Q199.4-22.1 199-24.43 198.6-26.75 197.83-28.05 197.05-29.35 195.88-29.85 194.7-30.35 193.15-30.35L193.15-30.35 185.65-30.35ZM226.55 0.3L226.55 0.3Q222.75 0.3 219.9-0.43 217.05-1.15 215.13-3.13 213.2-5.1 212.25-8.8 211.3-12.5 211.3-18.45L211.3-18.45Q211.3-24.4 212.28-28.13 213.25-31.85 215.15-33.85 217.05-35.85 219.9-36.6 222.75-37.35 226.55-37.35L226.55-37.35Q230.35-37.35 233.2-36.6 236.05-35.85 237.95-33.85 239.85-31.85 240.8-28.13 241.75-24.4 241.75-18.45L241.75-18.45Q241.75-12.5 240.8-8.8 239.85-5.1 237.95-3.13 236.05-1.15 233.2-0.43 230.35 0.3 226.55 0.3ZM226.55-6.35L226.55-6.35Q228.8-6.35 230.3-6.85 231.8-7.35 232.68-8.63 233.55-9.9 233.95-12.28 234.35-14.65 234.35-18.45L234.35-18.45Q234.35-22.45 233.95-24.85 233.55-27.25 232.68-28.53 231.8-29.8 230.3-30.25 228.8-30.7 226.55-30.7L226.55-30.7Q224.4-30.7 222.9-30.25 221.4-29.8 220.48-28.53 219.55-27.25 219.13-24.85 218.7-22.45 218.7-18.45L218.7-18.45Q218.7-14.65 219.08-12.28 219.45-9.9 220.35-8.63 221.25-7.35 222.78-6.85 224.3-6.35 226.55-6.35Z" opacity="1" transform="matrix(1,0,0,1,0,0)" fill="#000000" class="slogan-text-1" data-fill-palette-color="secondary" id="text-1"></path></svg></g></svg></g></svg></g></svg></g></svg></g></svg></g></svg></g><g><path d="M0 123.6c0-68.262 55.338-123.6 123.6-123.6 33.955 0 64.713 13.692 87.052 35.856l-6.278 0c-21.245-19.567-49.614-31.517-80.774-31.517-65.866 0-119.261 53.395-119.261 119.261 0 65.866 53.395 119.261 119.261 119.261 31.16 0 59.529-11.95 80.774-31.517h6.278c-22.339 22.164-53.097 35.856-87.052 35.856-68.262 0-123.6-55.338-123.6-123.6z" fill="#000000" stroke="transparent" data-fill-palette-color="tertiary"></path></g></svg></g><defs></defs></svg><rect width="395.52" height="247.2" fill="none" stroke="none" visibility="hidden"></rect></g></svg></g></svg>